<?xml version="1.0" encoding="utf-8"?>
<!-- Generator: Adobe Illustrator 23.1.0, SVG Export Plug-In . SVG Version: 6.00 Build 0)  -->
<svg version="1.1" id="Layer_1" xmlns="http://www.w3.org/2000/svg" xmlns:xlink="http://www.w3.org/1999/xlink" x="0px" y="0px"
	 viewBox="0 0 700 700" style="enable-background:new 0 0 700 700;" xml:space="preserve">
<style type="text/css">
	.st0{fill:#FFFFFF;}
	.st1{fill:#D6D6D6;}
	.st2{fill:#A4C2F7;}
	.st3{fill:#2F55D4;}
</style>
<g>
	<g>
		<path class="st0" d="M493.1,603.7H206.9c-82.8,0-149.8-67.1-149.8-149.8V167.7c0-82.8,67.1-149.8,149.8-149.8h286.2
			c82.8,0,149.8,67.1,149.8,149.8v286.2C642.9,536.6,575.9,603.7,493.1,603.7z"/>
		<path d="M493.1,608.1H206.9c-85,0-154.2-69.2-154.2-154.2V167.7c0-85,69.2-154.2,154.2-154.2h286.2c85,0,154.2,69.2,154.2,154.2
			v286.2C647.3,538.9,578.1,608.1,493.1,608.1z M206.9,22.2c-80.2,0-145.5,65.3-145.5,145.5v286.2c0,80.2,65.3,145.5,145.5,145.5
			h286.2c80.2,0,145.5-65.3,145.5-145.5V167.7c0-80.2-65.3-145.5-145.5-145.5H206.9z"/>
	</g>
	<rect x="192.8" y="114.7" class="st1" width="63.7" height="63.7"/>
	<rect x="320.1" y="114.7" class="st1" width="63.7" height="63.7"/>
	<rect x="256.4" y="114.7" class="st0" width="63.7" height="63.7"/>
	<rect x="447.4" y="114.7" class="st1" width="63.7" height="63.7"/>
	<rect x="383.7" y="114.7" class="st0" width="63.7" height="63.7"/>
	<rect x="192.8" y="242.1" class="st1" width="63.7" height="63.7"/>
	<rect x="320.1" y="242.1" class="st1" width="63.7" height="63.7"/>
	<rect x="256.4" y="242.1" class="st0" width="63.7" height="63.7"/>
	<rect x="447.4" y="242.1" class="st1" width="63.7" height="63.7"/>
	<rect x="383.7" y="242.1" class="st0" width="63.7" height="63.7"/>
	<rect x="320.1" y="369.1" class="st1" width="63.7" height="63.7"/>
	<rect x="192.8" y="369.1" class="st1" width="63.7" height="63.7"/>
	<rect x="447.4" y="369.1" class="st1" width="63.7" height="63.7"/>
	<rect x="383.7" y="369.1" class="st0" width="63.7" height="63.7"/>
	<rect x="192.8" y="178.4" class="st0" width="63.7" height="63.7"/>
	<rect x="320.1" y="178.4" class="st0" width="63.7" height="63.7"/>
	<rect x="256.4" y="178.4" class="st1" width="63.7" height="63.7"/>
	<rect x="447.4" y="178.4" class="st0" width="63.7" height="63.7"/>
	<rect x="383.7" y="178.4" class="st1" width="63.7" height="63.7"/>
	<rect x="192.8" y="305.7" class="st0" width="63.7" height="63.7"/>
	<rect x="320.1" y="305.7" class="st0" width="63.7" height="63.7"/>
	<rect x="256.4" y="305.7" class="st1" width="63.7" height="63.7"/>
	<rect x="447.4" y="305.7" class="st0" width="63.7" height="63.7"/>
	<rect x="383.7" y="305.7" class="st1" width="63.7" height="63.7"/>
	<polygon class="st2" points="196.4,432.7 352.9,228 507.4,432.7 	"/>
	<polygon class="st0" points="477.1,231.7 477.8,231.7 477.1,231.7 	"/>
	<polygon class="st0" points="477.8,106.1 477.1,106.2 477.1,106.1 	"/>
	<polygon class="st0" points="478.4,106.1 478.4,106.2 477.8,106.1 	"/>
	<polygon class="st0" points="477.8,231.7 478.4,231.7 478.4,231.7 	"/>
	<circle class="st3" cx="415.9" cy="210.2" r="54.6"/>
	<g>
		<polyline class="st0" points="271,530.6 228.4,530.6 211.2,547.8 		"/>
		<polygon points="213.3,549.9 209.1,545.6 227.2,527.6 271,527.6 271,533.6 229.6,533.6 		"/>
	</g>
	<g>
		<polyline class="st0" points="256,554.6 233.2,556.1 218.1,575.2 		"/>
		<polygon points="220.5,577.1 215.7,573.4 231.6,553.2 255.8,551.6 256.2,557.6 234.7,559 		"/>
	</g>
	<g>
		<circle class="st0" cx="207.1" cy="551.9" r="5.8"/>
		<path d="M207.1,560.7c-2.4,0-4.6-0.9-6.2-2.6c-1.7-1.7-2.6-3.9-2.6-6.2c0-2.4,0.9-4.6,2.6-6.2c3.3-3.3,9.1-3.3,12.5,0
			c3.4,3.4,3.4,9,0,12.5C211.6,559.8,209.4,560.7,207.1,560.7z M207.1,549.1c-0.7,0-1.4,0.3-2,0.8c-0.5,0.5-0.8,1.2-0.8,2
			c0,0.8,0.3,1.5,0.8,2c1.1,1.1,2.9,1.1,4,0c1.1-1.1,1.1-2.9,0-4C208.5,549.3,207.8,549.1,207.1,549.1z"/>
	</g>
	<g>
		<circle class="st0" cx="215.4" cy="578.7" r="5.8"/>
		<path d="M215.4,587.5c-1.9,0-3.8-0.6-5.5-1.9c-3.8-3-4.5-8.6-1.5-12.4c3-3.8,8.6-4.5,12.4-1.5v0c3.8,3,4.5,8.6,1.5,12.4
			C220.6,586.3,218,587.5,215.4,587.5z M215.4,575.9c-0.8,0-1.7,0.4-2.2,1.1c-1,1.2-0.7,3,0.5,4c1.2,1,3,0.8,4-0.5
			c1-1.2,0.8-3-0.5-4C216.6,576.1,216,575.9,215.4,575.9z"/>
	</g>
	<g>
		<polyline class="st0" points="503.5,516.7 503.5,541.1 473.3,571.2 444.1,571.2 		"/>
		<polygon points="474.6,574.2 444.1,574.2 444.1,568.2 472.1,568.2 500.5,539.8 500.5,516.7 506.5,516.7 506.5,542.3 		"/>
	</g>
	<g>
		<polyline class="st0" points="479.1,502.2 478.6,526.4 466.9,543.6 440.7,543.6 		"/>
		<polygon points="468.5,546.6 440.7,546.6 440.7,540.6 465.4,540.6 475.6,525.4 476.1,502.1 482.1,502.3 481.6,527.3 		"/>
	</g>
	<g>
		<circle class="st0" cx="503.5" cy="510.9" r="5.8"/>
		<path d="M503.5,519.7c-4.9,0-8.8-4-8.8-8.8c0-4.9,4-8.8,8.8-8.8s8.8,4,8.8,8.8C512.3,515.8,508.3,519.7,503.5,519.7z M503.5,508.1
			c-1.6,0-2.8,1.3-2.8,2.8c0,1.6,1.3,2.8,2.8,2.8c1.6,0,2.8-1.3,2.8-2.8C506.3,509.3,505,508.1,503.5,508.1z"/>
	</g>
	<g>
		<polyline class="st0" points="351.5,472.4 351.5,496.8 321.4,526.9 292.1,526.9 		"/>
		<polygon points="322.7,529.9 292.1,529.9 292.1,523.9 320.2,523.9 348.5,495.5 348.5,472.4 354.5,472.4 354.5,498 		"/>
	</g>
	<g>
		<circle class="st0" cx="351.5" cy="466.6" r="5.8"/>
		<path d="M351.5,475.4c-4.9,0-8.8-4-8.8-8.8s4-8.8,8.8-8.8c4.9,0,8.8,4,8.8,8.8S356.4,475.4,351.5,475.4z M351.5,463.8
			c-1.6,0-2.8,1.3-2.8,2.8c0,1.6,1.3,2.8,2.8,2.8c1.6,0,2.8-1.3,2.8-2.8C354.4,465.1,353.1,463.8,351.5,463.8z"/>
	</g>
	<g>
		<circle class="st0" cx="478.6" cy="497.8" r="5.8"/>
		<path d="M478.6,506.7c-2,0-3.9-0.7-5.4-1.9c-1.9-1.5-3-3.6-3.3-5.9c-0.3-2.3,0.4-4.7,1.8-6.5s3.6-3,5.9-3.3
			c2.3-0.3,4.6,0.4,6.5,1.8c1.9,1.5,3,3.6,3.3,5.9c0.3,2.3-0.4,4.7-1.8,6.5c-1.5,1.9-3.6,3-5.9,3.3
			C479.3,506.6,479,506.7,478.6,506.7z M478.6,495c-0.1,0-0.2,0-0.3,0c-0.7,0.1-1.4,0.5-1.9,1.1c-0.5,0.6-0.7,1.3-0.6,2.1
			c0.1,0.7,0.5,1.4,1.1,1.9c0.6,0.5,1.3,0.7,2.1,0.6l0,0c0.7-0.1,1.4-0.5,1.9-1.1c0.5-0.6,0.7-1.3,0.6-2.1c-0.1-0.7-0.5-1.4-1.1-1.9
			C479.9,495.2,479.3,495,478.6,495z"/>
	</g>
	<g>
		<path class="st0" d="M409.5,683.5H290.1c-18.6,0-33.6-15.1-33.6-33.6V530.5c0-18.6,15.1-33.6,33.6-33.6h119.4
			c18.6,0,33.6,15.1,33.6,33.6v119.4C443.2,668.5,428.1,683.5,409.5,683.5z"/>
		<path d="M409.5,686.5H290.1c-20.2,0-36.6-16.4-36.6-36.6V530.5c0-20.2,16.4-36.6,36.6-36.6h119.4c20.2,0,36.6,16.4,36.6,36.6
			v119.4C446.2,670.1,429.7,686.5,409.5,686.5z M290.1,499.8c-16.9,0-30.6,13.7-30.6,30.6v119.4c0,16.9,13.7,30.6,30.6,30.6h119.4
			c16.9,0,30.6-13.7,30.6-30.6V530.5c0-16.9-13.7-30.6-30.6-30.6H290.1z"/>
	</g>
	<path d="M392,585.6l7.3-2.4l-3.7-12.4l-7.4,1.9l-4.4-7.8l5.6-5.7l-9.4-9.2l-5.9,5.2l-7.1-4.2l2-7.4l-13-3.9l-2.6,7.7l-3.2-0.2
		l-0.4,0l-0.5,0l-3.2,0.2l-2.6-7.7l-13,3.9l2,7.4l-7.1,4.2l-5.9-5.2l-9.4,9.2l5.6,5.7l-4.4,7.8l-7.4-1.9l-3.7,12.4l7.3,2.4l0,8.6
		l-7.3,2.8l3.6,12.8l7.1-1.9l4.7,7.2l-5.9,6.1l9.8,9.5l5.7-5.5l7.1,4.2l-2.2,7.4l13.3,4.1l2.4-7.6l3.5,0.2l0.5,0l0.4,0l3.5-0.2
		l2.4,7.6l13.3-4.1l-2.2-7.4l7.1-4.2l5.7,5.5l9.9-9.5l-6-6.1l4.7-7.2l7.1,1.9l3.6-12.8l-7.3-2.8L392,585.6z M350,613.6L350,613.6
		c-2.9-0.2-23-2-23-22.5c0-22.7,19.5-23.7,22.8-23.7h0.1c3.3,0,22.8,1,22.8,23.7C372.7,611,353.7,613.3,350,613.6z"/>
</g>
</svg>
