<?xml version="1.0" encoding="utf-8"?>
<!-- Generator: Adobe Illustrator 23.1.0, SVG Export Plug-In . SVG Version: 6.00 Build 0)  -->
<svg version="1.1" id="Layer_1" xmlns="http://www.w3.org/2000/svg" xmlns:xlink="http://www.w3.org/1999/xlink" x="0px" y="0px"
	 viewBox="0 0 700 700" style="enable-background:new 0 0 700 700;" xml:space="preserve">
<style type="text/css">
	.st0{fill:#FFFFFF;}
	.st1{fill:#D6D6D6;}
	.st2{fill:#A4C2F7;}
	.st3{fill:#2F55D4;}
</style>
<g>
	<g>
		<path class="st0" d="M493.1,615.2H206.9c-82.8,0-149.8-67.1-149.8-149.8V179.1c0-82.8,67.1-149.8,149.8-149.8h286.2
			c82.8,0,149.8,67.1,149.8,149.8v286.2C642.9,548.1,575.9,615.2,493.1,615.2z"/>
		<path d="M493.1,619.5H206.9c-85,0-154.2-69.2-154.2-154.2V179.1c0-85,69.2-154.2,154.2-154.2h286.2c85,0,154.2,69.2,154.2,154.2
			v286.2C647.3,550.3,578.1,619.5,493.1,619.5z M206.9,33.6c-80.2,0-145.5,65.3-145.5,145.5v286.2c0,80.2,65.3,145.5,145.5,145.5
			h286.2c80.2,0,145.5-65.3,145.5-145.5V179.1c0-80.2-65.3-145.5-145.5-145.5H206.9z"/>
	</g>
	<path class="st2" d="M61.4,180.8c0-81.5,66.1-147.6,147.6-147.6H491c81.5,0,147.6,66.1,147.6,147.6H61.4z"/>
	<g>
		<path class="st2" d="M278.9,232.5c21.5-14.6,47.1-26.4,62.2-29.5c59.6-11.9,125.2,42.1,134.5,99.8c6.7,41.3-23.4,70.9-18,107.7
			c2.1,14.1,7.6,27.4,12,41c4.3,13.3,7.5,27,9.5,40.9c-16.1-25.7-44.4-42.9-76.8-43.4c-4.5-1.3-9-2.5-13-4.9
			c-43.9-27.4,33.8-84.6-9.3-116.5c-16.2-12-37.5-17-55.5-25.6c-12.2-5.8-22.3-13.7-31.8-23.3c-8.1-8.2-10.3-15.6-10.3-26.8
			L278.9,232.5z"/>
	</g>
	<g>
		<path class="st3" d="M282.3,251.5c-0.9,9.3-4.9,18.6-7.7,27.4c-3.5,11.4-6.6,22.9-8.8,34.6c-4.4,22.8-10.6,52.8,2.4,73.8
			c7.3,11.6,16.6,21.9,27.5,30.2c1.2,0.9,2.5,1.8,3.9,1.9c1.5,0.2,3-0.5,4.4-1.1c11.5-5.2,22.7-9.7,34.3-13.6
			c5,6.8,10.9,13.4,15.3,20.6c1.7,2.8,6.9,11.3,7.1,14.1c0.4,9.1-22.1,16.1-29.3,17.7c-2.3,0.5-4.5,0.8-6.7,0.9l3.9,0
			c-3,0.2-5.9,0.2-8.7,0.1c-1.6,0-3.1-0.1-4.7-0.2l3,0c-44.5-4.5-64.2-61.8-74.3-98.7c-7.8-28.5-10.3-59-2.1-87.4
			c3.5-12.3,19.8-27.4,37-39.4L282.3,251.5z"/>
	</g>
	<path class="st3" d="M356.9,396.4c-5.6,1.5-11.1,3.2-16.6,4.9c-1.3,0.4-2.3,1.9-1.9,3.3c0.4,1.3,1.9,2.3,3.3,1.9
		c5.5-1.8,11-3.4,16.6-4.9c1.4-0.4,2.3-1.9,1.9-3.3C359.8,396.9,358.4,396,356.9,396.4L356.9,396.4z"/>
	<path class="st3" d="M336.8,402.5c-7.2,2.5-14.4,5.2-21.4,8.1c-3.4,1.4-6.8,2.9-10.2,4.4c-1.9,0.8-4,2.3-6.2,1.5
		c-1.8-0.7-3.4-2.5-4.9-3.7c-10.2-8.4-20.2-19.2-26-31.2c-5.4-11.3-5.6-24.5-4.5-36.8c1.1-12.9,3.7-25.9,6.5-38.6
		c1.9-8.3,4.1-16.5,6.5-24.6c2.5-8.3,5.9-16.4,7.6-25c0.7-3.4-4.5-4.8-5.2-1.4c-1.7,8.4-4.9,16.3-7.4,24.4
		c-2.4,7.7-4.5,15.5-6.3,23.4c-3.1,13.6-5.8,27.5-7.1,41.3c-1.2,13.1-0.7,26.9,4.8,39.1c5.8,12.8,16.5,24.4,27.2,33.2
		c2.7,2.2,5.7,5.3,9.4,5.6c4,0.3,8.2-2.6,11.7-4.1c8.8-3.8,17.7-7.3,26.7-10.4C341.4,406.5,340,401.4,336.8,402.5L336.8,402.5z"/>
	<path class="st3" d="M315.2,460.7c7.5,0.4,14.7-0.1,21.9-2.2c5.6-1.7,11.1-3.7,16.2-6.5c4.1-2.3,9-5.6,9.9-10.6
		c1-5.1-3.4-10.9-5.8-15c-4.9-8.2-11.1-15.3-16.7-22.9c-2-2.7-6.7-0.1-4.6,2.7c4.9,6.6,10.4,12.8,14.8,19.8c1.3,2.1,2.6,4.2,3.8,6.4
		c1.2,2.1,2.8,4.5,3.3,6.9c0.7,3.3-4.1,6.2-6.6,7.7c-4.5,2.6-9.4,4.5-14.4,6.1c-7.2,2.2-14.2,2.8-21.7,2.4
		C311.8,455.1,311.8,460.5,315.2,460.7L315.2,460.7z"/>
	<g>
		<path class="st0" d="M227.4,162.6L227.4,162.6c-28.3,0-51.2-22.9-51.2-51.2v0c0-28.3,22.9-51.2,51.2-51.2h0
			c28.3,0,51.2,22.9,51.2,51.2v0C278.5,139.7,255.6,162.6,227.4,162.6z"/>
		<path d="M227.4,165.1c-29.6,0-53.7-24.1-53.7-53.7s24.1-53.7,53.7-53.7S281,81.8,281,111.4S257,165.1,227.4,165.1z M227.4,62.7
			c-26.8,0-48.7,21.8-48.7,48.7s21.8,48.7,48.7,48.7s48.7-21.8,48.7-48.7S254.2,62.7,227.4,62.7z"/>
	</g>
	<path class="st2" d="M258.9,101.7h-63.1c-0.9,0-1.7-0.7-1.7-1.7v0c0-0.9,0.7-1.7,1.7-1.7h63.1c0.9,0,1.7,0.7,1.7,1.7v0
		C260.6,100.9,259.9,101.7,258.9,101.7z"/>
	<path class="st3" d="M258.9,113.7h-63.1c-0.9,0-1.7-0.7-1.7-1.7l0,0c0-0.9,0.7-1.7,1.7-1.7h63.1c0.9,0,1.7,0.7,1.7,1.7l0,0
		C260.6,113,259.9,113.7,258.9,113.7z"/>
	<path d="M258.9,125.8h-63.1c-0.9,0-1.7-0.7-1.7-1.7l0,0c0-0.9,0.7-1.7,1.7-1.7h63.1c0.9,0,1.7,0.7,1.7,1.7l0,0
		C260.6,125.1,259.9,125.8,258.9,125.8z"/>
	<circle cx="209.4" cy="100" r="5"/>
	<circle cx="230.1" cy="112.1" r="5"/>
	<circle cx="218.1" cy="124.1" r="5"/>
	<g>
		<path class="st0" d="M349.7,163.2L349.7,163.2c-28.3,0-51.2-22.9-51.2-51.2v0c0-28.3,22.9-51.2,51.2-51.2h0
			c28.3,0,51.2,22.9,51.2,51.2v0C400.9,140.3,378,163.2,349.7,163.2z"/>
		<path d="M349.7,165.7c-29.6,0-53.7-24.1-53.7-53.7s24.1-53.7,53.7-53.7s53.7,24.1,53.7,53.7S379.3,165.7,349.7,165.7z M349.7,63.4
			c-26.8,0-48.7,21.8-48.7,48.7s21.8,48.7,48.7,48.7h0c26.8,0,48.7-21.8,48.7-48.7S376.6,63.4,349.7,63.4z"/>
	</g>
	<path d="M379.2,103.4l-59.5,21c-0.9,0.3-1.8-0.1-2.1-1l0,0c-0.3-0.9,0.1-1.8,1-2.1l59.5-21c0.9-0.3,1.8,0.1,2.1,1l0,0
		C380.5,102.1,380,103.1,379.2,103.4z"/>
	<path d="M376.6,127.4l-56.9-27.3c-0.8-0.4-1.2-1.4-0.8-2.2v0c0.4-0.8,1.4-1.2,2.2-0.8l56.9,27.3c0.8,0.4,1.2,1.4,0.8,2.2v0
		C378.4,127.4,377.4,127.8,376.6,127.4z"/>
	<g>
		<circle class="st0" cx="377.6" cy="102.2" r="8.7"/>
		<path d="M377.6,113.3c-1.6,0-3.3-0.4-4.8-1.1c-2.7-1.3-4.7-3.5-5.7-6.4c-1-2.8-0.8-5.8,0.5-8.5c1.3-2.7,3.5-4.7,6.4-5.7
			c5.8-2,12.2,1,14.2,6.8v0c2,5.8-1,12.2-6.8,14.2C380.1,113.1,378.9,113.3,377.6,113.3z M377.6,96c-0.7,0-1.4,0.1-2,0.4
			c-1.6,0.5-2.8,1.7-3.5,3.1c-0.7,1.5-0.8,3.2-0.3,4.7c0.5,1.6,1.7,2.8,3.1,3.5c1.5,0.7,3.2,0.8,4.7,0.3c3.2-1.1,4.9-4.7,3.8-7.9
			C382.6,97.6,380.2,96,377.6,96z"/>
	</g>
	<g>
		<circle class="st0" cx="376.7" cy="125.6" r="8.7"/>
		<path d="M376.7,136.8c-1.6,0-3.3-0.4-4.8-1.1c-2.7-1.3-4.7-3.5-5.7-6.4c-1-2.8-0.8-5.8,0.5-8.5c1.3-2.7,3.5-4.7,6.4-5.7
			c5.8-2,12.2,1,14.2,6.8l0,0c1,2.8,0.8,5.8-0.5,8.5c-1.3,2.7-3.5,4.7-6.4,5.7C379.2,136.6,378,136.8,376.7,136.8z M376.7,119.5
			c-0.7,0-1.4,0.1-2,0.4c-1.6,0.5-2.8,1.7-3.5,3.1c-0.7,1.5-0.8,3.2-0.3,4.7c0.5,1.6,1.7,2.8,3.1,3.5c1.5,0.7,3.2,0.8,4.7,0.3
			c1.6-0.5,2.8-1.7,3.5-3.1c0.7-1.5,0.8-3.2,0.3-4.7C381.7,121.1,379.3,119.5,376.7,119.5z"/>
	</g>
	<g>
		<path class="st0" d="M471.3,163.2L471.3,163.2c-28.3,0-51.2-22.9-51.2-51.2v0c0-28.3,22.9-51.2,51.2-51.2h0
			c28.3,0,51.2,22.9,51.2,51.2v0C522.4,140.3,499.5,163.2,471.3,163.2z"/>
		<path d="M471.3,165.7c-29.6,0-53.7-24.1-53.7-53.7s24.1-53.7,53.7-53.7s53.7,24.1,53.7,53.7S500.9,165.7,471.3,165.7z M471.3,63.4
			c-26.8,0-48.7,21.8-48.7,48.7s21.8,48.7,48.7,48.7c26.8,0,48.7-21.8,48.7-48.7S498.1,63.4,471.3,63.4z"/>
	</g>
	<polygon class="st3" points="441.6,114.4 504.7,114.4 470.5,80.1 	"/>
	<polygon class="st2" points="504.7,117.2 441.6,117.2 475.9,151.4 	"/>
	<circle cx="310.9" cy="498.3" r="6.5"/>
	<circle cx="333.9" cy="594.6" r="6.5"/>
	<circle cx="443.9" cy="556.4" r="6.5"/>
	<g>
		<path class="st0" d="M461.8,668.5L330.3,537l19.3-19.3l131.5,131.5c5.3,5.3,5.3,14,0,19.3v0C475.8,673.9,467.1,673.9,461.8,668.5z
			"/>
		<path d="M471.5,675.1c-4.3,0-8.4-1.7-11.5-4.7l0,0l0,0L326.7,537l22.9-22.9l133.3,133.3c3.1,3.1,4.7,7.1,4.7,11.5
			c0,4.3-1.7,8.4-4.7,11.5C479.9,673.4,475.8,675.1,471.5,675.1z M333.9,537l129.7,129.7c2.1,2.1,4.9,3.2,7.8,3.2s5.7-1.2,7.8-3.2
			c2.1-2.1,3.2-4.9,3.2-7.8s-1.2-5.7-3.2-7.8L349.6,521.3L333.9,537z"/>
	</g>
	<path d="M461.8,668.5l-92.1-92.1c-5.3-5.3-5.3-14,0-19.3h0c5.3-5.3,14-5.3,19.3,0l92.1,92.1c5.3,5.3,5.3,14,0,19.3v0
		C475.8,673.9,467.1,673.9,461.8,668.5z"/>
	<rect x="369.7" y="458" width="7.1" height="23"/>
	<rect x="369.7" y="490.1" width="7.1" height="23"/>
	<rect x="385.8" y="474.1" transform="matrix(-1.836970e-16 1 -1 -1.836970e-16 874.92 96.2995)" width="7.1" height="23"/>
	<rect x="353.7" y="474.1" transform="matrix(-1.836970e-16 1 -1 -1.836970e-16 842.8268 128.3928)" width="7.1" height="23"/>
	<rect x="293.9" y="524.3" width="7.1" height="23"/>
	<rect x="293.9" y="556.4" width="7.1" height="23"/>
	<rect x="310" y="540.3" transform="matrix(-1.836970e-16 1 -1 -1.836970e-16 865.3951 238.3447)" width="7.1" height="23"/>
	<rect x="277.9" y="540.3" transform="matrix(-1.836970e-16 1 -1 -1.836970e-16 833.3019 270.438)" width="7.1" height="23"/>
</g>
</svg>
